v -0.02338187 7.2628 -0.004213694
v -0.5435456 4.878413 2.882185
v -3.429944 2.88851 2.362021
v -2.90978 4.878413 -0.5243774
v 2.863016 4.881242 0.51595
v 2.342853 2.88851 3.402348
v 3.38318 2.891339 -2.370448
v 0.4967819 4.878413 -2.890612
v -2.389617 2.88851 -3.410776
vt 0.75 0.5
vt 0.75 1
vt 0.5 1
vt 0.5 0.5
vt 1 0.5
vt 1 1
vt 1 2.980232E-08
vt 0.75 0
vt 0.5 0
vn -0.001480467 0.9999989 -0.000266039
vn -0.04017244 0.9762175 0.2130385
vn -0.2866469 0.9374796 0.1973967
vn -0.214949 0.9758558 -0.0387612
vn 0.2116429 0.9766023 0.03814536
vn 0.1959662 0.9384056 0.284591
vn 0.2829338 0.9384285 -0.1982428
vn 0.03674304 0.976218 -0.2136548
vn -0.1997053 0.9374797 -0.2850434
vtan 0.9841459 0.001504168 0.1773549 -1
vtan 0.9840653 0.001694558 0.177799 -1
vtan 0.9576192 0.2742956 0.08790464 -1
vtan 0.9603835 0.2184158 0.1730836 -1
vtan 0.9611198 -0.2150531 0.1732076 -1
vtan 0.9287613 -0.2707367 0.2531878 -1
vtan 0.9589996 -0.2732536 0.07518284 -1
vtan 0.9830496 0.003119711 0.1833129 -1
vtan 0.9280621 0.2742955 0.2519179 -1
f 1/1/1 3/3/3 2/2/2
f 1/1/1 4/4/4 3/3/3
f 5/5/5 2/2/2 6/6/6
f 5/5/5 1/1/1 2/2/2
f 7/7/7 1/1/1 5/5/5
f 7/7/7 8/8/8 1/1/1
f 8/8/8 4/4/4 1/1/1
f 8/8/8 9/9/9 4/4/4
